<?xml version="1.0" encoding="UTF-8"?><svg id="_レイヤー_2" xmlns="http://www.w3.org/2000/svg" viewBox="0 0 114.83 106.01"><defs><style>.cls-1{fill:#b10512;font-family:JCkg, GungSeo;font-size:58.06px;}.cls-2{fill:#084d26;}</style></defs><g id="_レイヤー_1-2"><path class="cls-2" d="M7.66,27.15v-9.91c-.32.05-.95.25-1.88.61-.93.36-1.41.53-1.44.53-.42,0-1.04-.17-1.88-.52-.57-.22-.85-.43-.85-.63,0-.15.29-.29.88-.44.79,0,1.68-.09,2.69-.28,1.01-.18,1.83-.41,2.47-.68,0-1.94-.43-2.98-1.29-3.13-1.28-.22-2.06-.38-2.36-.48-.59.57-1.19,1.07-1.8,1.51-.88.64-1.57.96-2.06.96l-.15-.11c0-.1.06-.23.17-.41.11-.17.28-.37.5-.59,1.03-1.2,2.32-3.19,3.87-5.97,1.72-3.12,2.58-5.24,2.58-6.37,0-.02-.07-.17-.2-.44-.14-.27-.2-.44-.2-.52,0-.2.16-.29.48-.29.59,0,1.36.25,2.32.75.96.5,1.44,1.01,1.44,1.53,0,.25-.11.49-.33.74-.07.07-.27.26-.59.55,1.38.49,2.46.92,3.24,1.29,1.47.69,2.21,1.44,2.21,2.25,0,.57-.23.85-.7.85-.64,0-1.69-.52-3.17-1.55-.81-.59-1.61-1.19-2.39-1.8-1.15,1.94-1.88,3.14-2.17,3.61-.93,1.45-1.77,2.55-2.5,3.32.17.05.36.09.57.11.21.02.4.04.57.04.76,0,1.58-.23,2.47-.7,1.94-1.03,3.18-1.55,3.72-1.55.49,0,.93.04,1.31.11.38.07.57.26.57.55,0,.47-.68.93-2.03,1.4-1.52.42-2.43.66-2.73.74.54.2.9.39,1.07.59.17.2.26.44.26.74,0,.1-.03.32-.09.66-.06.34-.09.64-.09.88.22,0,.67-.26,1.34-.77.67-.52,1.37-.77,2.12-.77.3,0,.62.07.96.22.35.15.52.36.52.63,0,.2-.12.36-.35.5-.23.14-.47.23-.72.28-.74.2-1.39.38-1.95.55-.17.05-.81.28-1.92.7v6.59c.29-.27.65-.74,1.09-1.4.36-.54.68-1.07.94-1.58v-.88c0-.37.17-.55.52-.55.44,0,1.01.3,1.71.9.7.6,1.05,1.1,1.05,1.49,0,.22-.18.38-.54.48-.36.1-.59.17-.69.22-1.41.93-2.81,1.87-4.19,2.8v1.8c1.51-.49,2.73-.87,3.65-1.14.93-.27,1.5-.41,1.72-.41.2.05.3.11.3.18,0,.44-1.54,1.36-4.6,2.76-1.92.86-3.82,1.72-5.71,2.58-.12.05-.29.18-.5.39-.21.21-.4.31-.57.31-.42,0-.92-.34-1.51-1.03-.59-.69-.88-1.24-.88-1.66,0-.25.18-.37.55-.37.17,0,.43.04.77.11.34.07.56.11.66.11.44,0,1.07-.11,1.88-.33.81-.22,1.44-.44,1.88-.66ZM1.73,21.03l.15-.11c1.2.15,2.25.5,3.13,1.07,1.13.71,1.69,1.6,1.69,2.65,0,.61-.23.92-.7.92-.44,0-1.27-.64-2.47-1.92-1.2-1.28-1.8-2.15-1.8-2.62ZM17.9,11.16c-.44.42-.87.84-1.29,1.25-.64.57-1.14.85-1.51.85l-.15-.15c1.15-1.99,2.16-3.84,3.02-5.56.96-1.92,1.44-3.39,1.44-4.42,0-.42-.1-.83-.31-1.25-.21-.42-.31-.64-.31-.66,0-.29.26-.44.77-.44.79,0,1.69.26,2.73.77,1.03.52,1.55,1.06,1.55,1.62,0,.27-.14.55-.41.85-.44.49-.68.76-.7.81-1.28,1.77-2.54,3.54-3.79,5.3.79,0,2.09-.22,3.9-.66,1.08-.27,2.38-.63,3.9-1.07.17-.05.56-.33,1.18-.85.27-.22.44-.33.52-.33.39,0,1.17.44,2.32,1.33,1.15.88,1.73,1.5,1.73,1.84,0,.22-.07.44-.22.66-.44.64-.68,1.06-.7,1.25-.02.2-.08.74-.17,1.64-.09.9-.17,1.58-.24,2.04-.44,3.63-.99,6.66-1.66,9.06-1.25,4.54-2.78,6.82-4.57,6.82-.61,0-.92-.29-.92-.88,0-.71-.44-1.53-1.33-2.47-.88-.93-1.33-1.5-1.33-1.69s.11-.29.33-.29c.25,0,.58.09.99.26,1.08.44,1.63.66,1.66.66.98,0,1.83-1.24,2.54-3.72.54-1.89.97-4.38,1.29-7.48.25-2.38.37-4.25.37-5.6,0-.39-.06-.69-.18-.9-.12-.21-.38-.31-.77-.31-.74,0-2.16.33-4.27.98-2.11.65-3.55.98-4.31.98-.44,0-.81-.07-1.1-.22ZM25.64,17.06c0,.49-.74.87-2.23,1.14-1.49.27-2.93.41-4.33.41-.52,0-1.25-.16-2.19-.48-.95-.32-1.42-.63-1.42-.92,0-.2.2-.29.59-.29l1.69.04c.52,0,.96-.01,1.34-.04.38-.02.82-.09,1.31-.18.96-.27,1.92-.54,2.87-.81.37,0,.85.11,1.45.33.6.22.9.49.9.81Z"/><path class="cls-2" d="M100.77,19.09l.11,4.19c0,2.46-.09,4.39-.26,5.78-.24,1.95-.65,2.93-1.21,2.93-.51,0-.93-.53-1.26-1.59s-.49-1.95-.49-2.65c0-.41.04-.9.11-1.46.17-1.32.26-2.15.26-2.49v-3.62c-1.37,1.83-3.07,3.51-5.11,5.03-2.04,1.52-4.09,2.62-6.17,3.28-.1.05-.32.12-.66.2-.34.09-.61.13-.81.13-.15,0-.24-.01-.29-.04-.02-.02-.04-.05-.04-.07.05-.2.35-.48.91-.84.22-.15.44-.28.66-.4,1.68-1.05,3.55-2.62,5.6-4.72,2.05-2.1,3.55-3.99,4.5-5.67-1,0-2.18.22-3.55.66-1.37.44-2.55.94-3.55,1.51-.2.12-.38.22-.57.3-.18.08-.37.12-.57.12-.39,0-1.2-.32-2.42-.97-1.22-.65-1.83-1.13-1.83-1.45,0-.1.2-.18.59-.26.34.05.72.09,1.13.13.41.04.74.05.99.05,1.39,0,3.75-.32,7.06-.95,1.37-.27,2.73-.54,4.1-.81v-3.07c-.63.12-1.15.22-1.54.29-.39.07-.82.17-1.28.29-.22.39-.49.59-.81.59-1.02,0-1.83-1.23-2.42-3.7-.34-1.66-.67-3.32-.99-4.98-.1-.29-.42-.96-.97-2.01-.55-1.05-.82-1.6-.82-1.65,0-.15.13-.22.4-.22.39,0,.81.09,1.24.26.68.34,1.37.68,2.05,1.02.76,0,1.62-.09,2.6-.27.98-.18,1.93-.36,2.85-.53,1.83,0,3.78-.16,5.86-.48.24-.05.66-.21,1.24-.49.59-.28.96-.42,1.13-.42.39,0,1.17.55,2.34,1.65,1.17,1.1,1.76,1.83,1.76,2.2,0,.24-.12.46-.37.66-.24.2-.47.38-.66.55-1.22,2.27-2.22,4-2.98,5.2-.76,1.2-1.46,1.79-2.09,1.79-.2,0-.5-.04-.92-.11-.42-.07-.75-.11-.99-.11l-1.91.11v3.15h2.13c1.13,0,1.9-.02,2.33-.05s1.03-.12,1.82-.24c.2-.02.49-.09.88-.18.39-.1.72-.15.99-.15.69,0,1.48.21,2.39.62,1.1.51,1.65,1.05,1.65,1.61,0,.17-.09.36-.28.57-.18.21-.37.31-.57.31-2.23-.46-3.81-.77-4.74-.91-1.64-.27-3.13-.4-4.48-.4h-2.13v.88c.71.85,1.97,1.89,3.78,3.11,1.35.93,3.07,2.01,5.17,3.26,1.52.9,3.03,1.79,4.55,2.67.37.22.55.44.55.66,0,.27-.2.44-.59.51-.39.07-.81.11-1.25.11-.32,0-.71-.02-1.17-.05-.46-.04-.83-.08-1.1-.13-1.25-.22-3-1.38-5.25-3.48-.05-.02-1.61-1.6-4.7-4.74ZM98.03,5.97c0-.66-.09-1.24-.26-1.76-.24-.71-.62-1.17-1.13-1.39-1.02.17-2.05.33-3.07.48.05.37.12.82.22,1.35.1.54.22,1.18.37,1.94.59,0,1.21-.07,1.88-.2.67-.13,1.34-.27,1.99-.42ZM98.03,11.06v-3.62c-.56.1-1.2.19-1.9.27-.71.09-1.29.13-1.76.13l.55,3.73c.54-.12,1.1-.23,1.7-.31.6-.09,1.07-.15,1.41-.2ZM99.16,2.64c.46.24.93.49,1.39.73.32.24.48.48.48.7,0,.15-.04.37-.13.66-.09.29-.13.51-.13.66h.33l.74-.11c.79,0,1.41.07,1.87.22.46.15.68.35.68.62,0,.46-.52.78-1.55.95-.57.1-1.26.15-2.07.15v3.29h2.78c.29-.7.74-1.94,1.35-3.71.71-2.04,1.06-3.23,1.06-3.58s-.05-.61-.16-.81c-.11-.19-.34-.29-.68-.29-.81,0-1.75.06-2.84.18-1.09.12-2.13.23-3.13.33Z"/><path class="cls-2" d="M9.74,83.49c.57.35.97.62,1.19.82.52.45.78.83.78,1.15s-.12.66-.37,1c-.35.52-.55.84-.59.97l1.19-.04c.32,0,.59.02.8.06.21.04.46.22.76.54.3.32.63.78.99,1.36.36.58.54,1,.54,1.25,0,.17-.09.37-.26.59-.25.32-.38.53-.41.63-1.34,3.74-2.38,6.36-3.12,7.84-1.83,3.67-3.61,5.5-5.32,5.5-.32,0-.54-.17-.65-.5-.11-.33-.17-.74-.17-1.21v-.63c-.03-.32-.43-1.05-1.23-2.19-.37-.55-.56-.93-.56-1.15,0-.12.07-.19.22-.19.22,0,.74.19,1.56.58.82.38,1.33.58,1.52.58.92,0,1.99-1.47,3.23-4.42,1.12-2.68,1.67-4.6,1.67-5.76,0-.42-.06-.76-.17-1.02-.11-.26-.34-.45-.69-.58h-.67c-.92,1.76-2.27,3.59-4.05,5.5-2.23,2.38-4.05,3.57-5.46,3.57-.17-.05-.26-.11-.26-.19s.68-.95,2.04-2.64c1.71-2.13,3-3.85,3.87-5.17,1.39-2.13,2.08-3.69,2.08-4.68,0-.45-.15-.81-.45-1.08-.59,0-1.31.16-2.14.48-.83.32-1.68.66-2.55,1-.32,0-.92-.21-1.78-.63C.43,84.4,0,84.07,0,83.82c0-.12.14-.19.41-.19,1.14,0,2.26-.09,3.36-.26.27-.05,2.12-.46,5.52-1.23v-4.2c-.05-.25-.09-.53-.11-.84-.03-.31-.22-.71-.59-1.19-.37-.48-.76-.97-1.15-1.47,0-.12.09-.21.26-.26.15-.05.31-.07.48-.07h.19c.77,0,1.67.27,2.71.8,1.04.53,1.56,1.12,1.56,1.77,0,.2-.06.5-.19.89-.12.4-.19.69-.19.89,0,.35-.03.92-.07,1.73-.05.81-.07,1.25-.07,1.32,1.04-.12,2.09-.25,3.16-.37.5,0,.94.14,1.34.43.4.29.59.58.59.87,0,.45-.42.67-1.26.67-1.46,0-2.62.02-3.48.06-.85.04-1.77.14-2.73.32ZM23.64,98.13c-.79,1.34-2.25,2.59-4.37,3.75-2.12,1.16-3.96,1.75-5.52,1.75-.47,0-.71-.09-.71-.26s.2-.39.61-.65c.41-.26.74-.44.98-.54,1.34-.69,2.74-1.67,4.2-2.94,1.71-1.49,2.79-2.81,3.23-3.98-.92-1.59-1.6-2.74-2.04-3.46-.79-1.29-1.7-2.28-2.71-2.97-.25.15-.48.29-.71.41-.5.27-.82.41-.97.41s-.22-.07-.22-.22c0-.2.45-1.04,1.34-2.53,1.04-1.73,1.86-3.21,2.45-4.42.92-1.88,1.38-3.32,1.38-4.31,0-.25-.12-.66-.35-1.25-.24-.58-.35-.96-.35-1.13,0-.35.22-.52.67-.52.64,0,1.54.46,2.68,1.38,1.14.92,1.71,1.69,1.71,2.3,0,.27-.23.56-.69.87-.46.31-.73.53-.8.65-.32.47-.72,1.14-1.19,2.01-.32.57-.71,1.28-1.15,2.12.69,0,1.62-.11,2.79-.33,1.16-.22,2.09-.46,2.79-.71.07-.02.45-.22,1.12-.59.42-.22.85-.33,1.3-.33.64,0,1.32.14,2.03.43.71.29,1.06.69,1.06,1.21,0,.32-.16.55-.48.67-.32.12-1.12.22-2.38.3s-2.95.15-5.06.22c-1.21.22-2.43.45-3.64.67l-.67-.11c-.42.64-.94,1.25-1.56,1.82.92.57,1.65,1.28,2.19,2.12.77,1.26,1.55,2.52,2.34,3.75.32-.32.62-.97.89-1.95.27-.98.41-1.79.41-2.44,0-.35-.06-.68-.19-1-.12-.32-.26-.67-.41-1.04,0-.15.08-.26.24-.33.16-.07.32-.11.46-.11.67,0,1.48.31,2.43.93.95.62,1.43,1.24,1.43,1.86,0,.22-.13.49-.39.8s-.4.5-.43.58c-.79,1.73-1.57,3.46-2.34,5.17.89,1.26,2.34,2.69,4.35,4.28.97.77,2.66,1.99,5.09,3.68.35.25.53.38.56.41.25.22.37.43.37.63,0,.37-.24.56-.71.56l-.19-.04c-3.45-.47-5.68-1.17-6.69-2.08-1.29-1.81-2.69-3.63-4.2-5.46Z"/><path class="cls-2" d="M88.27,88.69c.02.69-.2,1.03-.66,1.03-.56,0-1.51-.55-2.83-1.66-1.32-1.1-1.99-1.9-1.99-2.39,0-.17.12-.26.37-.26,1.15,0,2.23.26,3.24.77,1.25.64,1.88,1.47,1.88,2.5ZM90.88,90.6l.04.48c0,.74-.23,2.18-.7,4.34-.59,2.53-1.16,5.05-1.73,7.58l.04,1.62c0,.37-.01.6-.04.7-.1.42-.33.63-.7.63-.88,0-1.67-.57-2.37-1.71s-1.05-2.2-1.05-3.18c0-.22.06-.33.18-.33.1,0,.24.06.42.18.18.12.4.26.64.4.54,0,1.37-1.36,2.5-4.08.47-1.15,1.12-2.87,1.95-5.15.12-.34.26-.67.4-.99.15-.32.28-.48.4-.48ZM90.62,79.79c-.02.79-.26,1.18-.7,1.18-.66,0-1.66-.73-3-2.19-1.34-1.46-2-2.34-2-2.63,0-.12.1-.18.29-.18,1.18,0,2.33.34,3.46,1.03,1.3.79,1.95,1.72,1.95,2.8ZM105.08,98.18c-1.54,1.4-2.7,2.44-3.46,3.13-1.4,1.28-2.49,2.4-3.27,3.38-.25.34-.44.6-.59.77-.29.37-.55.55-.77.55s-.64-.66-1.27-1.97c-.63-1.31-.94-2.14-.94-2.48,0-.17.06-.42.18-.74.12-.32.18-.51.18-.59.17-.91.29-2.02.35-3.35.06-1.32.09-2.16.09-2.5,0-1.13.04-2.27.11-3.42.22-3.43.33-5.36.33-5.77,0-.76-.13-1.48-.4-2.17-.32-.56-.63-1.14-.92-1.73,0-.29.24-.44.71-.44.45,0,1.01.12,1.71.35.69.23,1.14.42,1.34.57.26-.05.6-.12,1.01-.22.41-.1.77-.2,1.08-.29v-.81c0-.49,0-.98-.02-1.47-.01-.49-.1-.92-.26-1.29-.16-.37-.55-.78-1.16-1.23-.61-.45-.92-.78-.92-.97,0-.42.53-.63,1.58-.63.93,0,1.83.18,2.7.55.87.37,1.31.85,1.31,1.43,0,.22-.06.53-.18.92-.12.39-.18.7-.18.92-.02.32-.04.59-.06.83-.01.23-.02.42-.02.57v.48c.32-.07.59-.14.83-.2.23-.06.58-.19,1.05-.39.12-.05.39-.23.79-.53.4-.31.68-.46.83-.46.37,0,1.06.42,2.08,1.27,1.02.85,1.53,1.45,1.53,1.82,0,.15-.09.33-.28.53-.18.21-.36.4-.53.57-.39.69-.76,1.52-1.1,2.5-.34.98-.68,1.94-1.01,2.87-.33.93-1,1.4-2,1.4l-.48-.04c-.86.27-1.83.54-2.93.81-1.59.39-2.69.59-3.3.59h-.51l-.18.86c.59.1,1.18.18,1.77.25.71.22,1.35.52,1.91.9.54.43,1.08.86,1.62,1.3,1.54-1.01,2.87-2.13,3.97-3.38.22-.37.37-.63.44-.77.17-.29.42-.44.74-.44.44,0,1.01.23,1.71.7.7.47,1.05.9,1.05,1.29,0,.25-.36.48-1.09.72-.72.23-1.1.35-1.12.35-1.5.78-2.98,1.57-4.45,2.35.98.61,2.06,1.24,3.24,1.88.39.22,1.12.61,2.17,1.16,1.05.55,2.16,1.12,3.31,1.71.91.54,1.39.92,1.43,1.14,0,.12-.25.25-.74.37-.49.12-.99.18-1.51.18-1.82,0-3.43-.55-4.86-1.66-1.5-1.18-2.38-1.85-2.65-2.02ZM104.16,97.37c-1.18-1.05-2.35-2.11-3.53-3.16-1.05-.83-1.83-1.25-2.32-1.25-.15,0-.27.05-.37.15-.27,2.8-.53,5.58-.77,8.35,1.08-.44,2.28-1.05,3.6-1.84,1.1-.66,2.23-1.41,3.38-2.24ZM105.56,85.3c-1.1.37-2.29.71-3.57,1.03-1.72.44-2.89.66-3.53.66l-.15,3.31c.96-.15,2.03-.4,3.22-.77,1.19-.37,2.34-.72,3.44-1.07.12-.47.23-.98.33-1.53.1-.55.18-1.1.26-1.64ZM98.64,82.99c.15.17.22.49.22.96,0,.27-.03.59-.09.97-.06.38-.1.63-.13.75.66,0,2.13-.37,4.41-1.1,1.08-.34,1.99-.51,2.72-.51l.37-2.17c0-.49-.21-.74-.63-.74-.44,0-1.53.26-3.27.77-1.2.37-2.4.72-3.6,1.07Z"/><text class="cls-1" transform="translate(28.41 70.14)"><tspan x="0" y="0">記</tspan></text></g></svg>